<?xml version="1.0" encoding="utf-8"?>
<!-- Generator: Adobe Illustrator 24.3.0, SVG Export Plug-In . SVG Version: 6.00 Build 0)  -->
<svg version="1.1" id="Capa_1" xmlns="http://www.w3.org/2000/svg" xmlns:xlink="http://www.w3.org/1999/xlink" x="0px" y="0px"
	 viewBox="0 0 24 24" style="enable-background:new 0 0 24 24;" xml:space="preserve">
<style type="text/css">
	.st0{fill:#1D1D1B;}
</style>
<path class="st0" d="M10,21h4c0,1.1-0.9,2-2,2S10,22.1,10,21 M21,19v1H3v-1l2-2v-6c0-3.1,2-5.8,5-6.7c0-0.1,0-0.2,0-0.3
	c0-1.1,0.9-2,2-2s2,0.9,2,2c0,0.1,0,0.2,0,0.3c3,0.9,5,3.6,5,6.7v6L21,19 M17,11c0-2.8-2.2-5-5-5s-5,2.2-5,5v7h10V11 M19.8,3.2
	l-1.4,1.4C20,6.3,21,8.6,21,11h2C23,8.1,21.8,5.2,19.8,3.2 M1,11h2c0-2.4,1-4.7,2.7-6.4L4.2,3.2C2.2,5.2,1,8.1,1,11z"/>
</svg>
