<?xml version="1.0" encoding="utf-8"?>
<!-- Generator: Adobe Illustrator 24.3.0, SVG Export Plug-In . SVG Version: 6.00 Build 0)  -->
<svg version="1.1" id="Capa_1" xmlns="http://www.w3.org/2000/svg" xmlns:xlink="http://www.w3.org/1999/xlink" x="0px" y="0px"
	 viewBox="0 0 24 24" style="enable-background:new 0 0 24 24;" xml:space="preserve">
<style type="text/css">
	.st0{fill:#FFFFFF;}
</style>
<path class="st0" d="M4,2h16c1.1,0,2,0.9,2,2v12c0,1.1-0.9,2-2,2h-6.1l-3.7,3.7C10,21.9,9.8,22,9.5,22l0,0H9c-0.6,0-1-0.4-1-1v-3H4
	c-1.1,0-2-0.9-2-2V4C2,2.9,2.9,2,4,2 M12.2,5.5c-0.9,0-1.6,0.2-2.1,0.5C9.5,6.4,9.2,7,9.3,7.7h2c0-0.3,0.1-0.5,0.3-0.6
	c0.2-0.1,0.4-0.2,0.7-0.2c0.3,0,0.6,0.1,0.8,0.3c0.2,0.2,0.3,0.4,0.3,0.7c0,0.3-0.1,0.5-0.2,0.7c-0.2,0.2-0.4,0.4-0.6,0.5
	c-0.5,0.3-0.9,0.6-1.1,0.8C11.1,10.2,11,10.5,11,11h2c0-0.3,0.1-0.5,0.1-0.7c0.1-0.2,0.3-0.3,0.5-0.5c0.5-0.2,0.8-0.5,1.1-0.9
	c0.3-0.4,0.4-0.8,0.4-1.2c0-0.7-0.3-1.3-0.8-1.7C13.9,5.7,13.1,5.5,12.2,5.5 M11,12v2h2v-2H11z"/>
</svg>
